<?xml version="1.0" encoding="UTF-8" standalone="no"?>
<!-- Created with Inkscape (http://www.inkscape.org/) -->

<svg
   xmlns:dc="http://purl.org/dc/elements/1.1/"
   xmlns:cc="http://creativecommons.org/ns#"
   xmlns:rdf="http://www.w3.org/1999/02/22-rdf-syntax-ns#"
   xmlns:svg="http://www.w3.org/2000/svg"
   xmlns="http://www.w3.org/2000/svg"
   xmlns:sodipodi="http://sodipodi.sourceforge.net/DTD/sodipodi-0.dtd"
   xmlns:inkscape="http://www.inkscape.org/namespaces/inkscape"
   height="320"
   width="320"
   viewBox="0 0 320 320.00001"
   id="svg3663"
   version="1.1"
   inkscape:version="0.91 r13725"
   sodipodi:docname="segell-iluro-320x320.svg"
   inkscape:export-filename="/home/rgil/Documents/feina/temesramon/serarols/clausulasol/www.clausulasol.cat/apple-touch-icon-precomposed.png"
   inkscape:export-xdpi="42.75"
   inkscape:export-ydpi="42.75">
  <defs
     id="defs3669" />
  <sodipodi:namedview
     pagecolor="#ffffff"
     bordercolor="#666666"
     borderopacity="1"
     objecttolerance="10"
     gridtolerance="10"
     guidetolerance="10"
     inkscape:pageopacity="0"
     inkscape:pageshadow="2"
     inkscape:window-width="1600"
     inkscape:window-height="1135"
     id="namedview3667"
     showgrid="false"
     units="px"
     inkscape:zoom="1"
     inkscape:cx="177.99616"
     inkscape:cy="249.1811"
     inkscape:window-x="0"
     inkscape:window-y="36"
     inkscape:window-maximized="1"
     inkscape:current-layer="svg3663" />
  <metadata
     id="metadata3665">
    <rdf:RDF>
      <cc:Work
         rdf:about="">
        <dc:format>image/svg+xml</dc:format>
        <dc:type
           rdf:resource="http://purl.org/dc/dcmitype/StillImage" />
        <dc:title></dc:title>
      </cc:Work>
    </rdf:RDF>
  </metadata>
  <g
     id="g3860">
    <g
       transform="matrix(2.4534663,0,0,-2.4534663,172.46852,201.19444)"
       id="g46">
      <path
         inkscape:connector-curvature="0"
         id="path48"
         style="fill:#ffffff;fill-opacity:1;fill-rule:nonzero;stroke:none"
         d="m 0,0 0,58.077 -9.986,0 0,-58.572 c 0,-5.416 -0.963,-20.557 -3.832,-23.571 l 0,-0.431 C -4.141,-21.812 0,-13.769 0,0" />
    </g>
    <path
       inkscape:connector-curvature="0"
       id="path50"
       style="fill:#ffffff;fill-opacity:1;fill-rule:nonzero;stroke:none"
       d="m -3.338544e-4,187.2327 122.5923538544,0 0,-21.61013 -122.5923538544,0 0,21.61013 z" />
    <path
       inkscape:connector-curvature="0"
       id="path52"
       style="fill:#ffffff;fill-opacity:1;fill-rule:nonzero;stroke:none"
       d="m 4.5582065,80.087377 118.0338135,0 0,-21.384413 -118.0338135,0 0,21.384413 z" />
    <path
       inkscape:connector-curvature="0"
       id="path54"
       style="fill:#ffffff;fill-opacity:1;fill-rule:nonzero;stroke:none"
       d="m 38.416041,133.54841 84.173519,0 0,-21.38441 -84.173519,0 0,21.38441 z" />
    <path
       inkscape:connector-curvature="0"
       id="path56"
       style="fill:#ffffff;fill-opacity:1;fill-rule:nonzero;stroke:none"
       d="m 197.40802,187.2327 122.59235,0 0,-21.61013 -122.59235,0 0,21.61013 z" />
    <path
       inkscape:connector-curvature="0"
       id="path58"
       style="fill:#ffffff;fill-opacity:1;fill-rule:nonzero;stroke:none"
       d="m 197.40802,80.087377 118.03381,0 0,-21.384413 -118.03381,0 0,21.384413 z" />
    <path
       inkscape:connector-curvature="0"
       id="path60"
       style="fill:#ffffff;fill-opacity:1;fill-rule:nonzero;stroke:none"
       d="m 197.40802,133.54841 84.17107,0 0,-21.38441 -84.17107,0 0,21.38441 z" />
  </g>
</svg>
